<svg width="43" height="42" viewBox="0 0 43 42" fill="none" xmlns="http://www.w3.org/2000/svg">
<g clip-path="url(#clip0)">
<path fill-rule="evenodd" clip-rule="evenodd" d="M42.2619 20.9998C42.2619 32.5976 32.86 41.9996 21.2621 41.9996C9.66425 41.9996 0.262329 32.5976 0.262329 20.9998C0.262329 9.40192 9.66425 0 21.2621 0C32.86 0 42.2619 9.40192 42.2619 20.9998ZM7.48123 20.9999C7.48123 13.3919 13.6543 7.21875 21.2623 7.21875C28.8554 7.21875 35.0434 13.3919 35.0434 20.9999C35.0434 28.6078 28.8554 34.781 21.2623 34.781C13.6543 34.781 7.48123 28.6078 7.48123 20.9999ZM33.0256 20.8952C32.9957 18.13 32.0092 15.5741 30.365 13.5712C30.1109 13.9 28.1379 16.441 23.8033 18.2048C24.0724 18.7578 24.3414 19.3407 24.5806 19.9087C24.6179 19.9958 24.6526 20.083 24.687 20.169C24.7351 20.2896 24.7823 20.4081 24.8347 20.5215C28.6447 20.0417 32.4265 20.7785 32.9864 20.8876C33.002 20.8907 33.0151 20.8932 33.0256 20.8952ZM29.0646 12.211C26.987 10.3726 24.2517 9.25154 21.2623 9.25154C20.3057 9.25154 19.379 9.35617 18.4972 9.56542L18.513 9.587C18.8894 10.1 20.992 12.9661 22.8916 16.456C27.0767 14.8866 28.8554 12.51 29.0646 12.211ZM20.6196 17.1585C18.6616 13.6908 16.569 10.7761 16.2551 10.3576C12.9668 11.9121 10.5005 14.9463 9.73822 18.5934C9.74722 18.5934 9.75749 18.5934 9.76903 18.5934C10.4286 18.594 15.2137 18.5981 20.6196 17.1585ZM9.48413 20.6561V21.0148C9.48413 24.0341 10.635 26.7993 12.5034 28.8769C12.7725 28.4285 16.001 23.0775 22.0695 21.1194C22.144 21.0971 22.2222 21.0747 22.3004 21.0524C22.3791 21.0299 22.4578 21.0074 22.5328 20.9849C22.2339 20.3123 21.92 19.6397 21.5762 18.982C15.7021 20.7458 9.99232 20.671 9.48413 20.6561ZM14.0429 30.2969C16.0309 31.8513 18.542 32.7781 21.2623 32.7781C22.8916 32.7781 24.446 32.4492 25.866 31.8364C25.6866 30.8051 25.014 27.2028 23.3549 22.9131C23.3399 22.9205 23.3287 22.9243 23.3175 22.928C23.3063 22.9318 23.2951 22.9355 23.2802 22.943C16.6437 25.2597 14.2522 29.8634 14.0429 30.2969ZM25.5372 22.375C27.0767 26.605 27.7045 30.0428 27.8241 30.7602C30.4697 28.9815 32.353 26.1565 32.8612 22.8832C32.4576 22.7486 29.2291 21.792 25.5372 22.375Z" fill="black"/>
</g>
<defs>
<clipPath id="clip0">
<rect width="41.9996" height="41.9996" fill="white" transform="translate(0.262329)"/>
</clipPath>
</defs>
</svg>
