<svg width="43" height="42" viewBox="0 0 43 42" fill="none" xmlns="http://www.w3.org/2000/svg">
<g clip-path="url(#clip0)">
<path fill-rule="evenodd" clip-rule="evenodd" d="M21.261 -0.000262403C9.66633 -0.000262403 0.263191 9.40163 0.263191 21.0002C0.263191 30.277 6.2797 38.1486 14.6244 40.9267C15.6751 41.1188 16.058 40.4704 16.058 39.9135C16.058 39.4146 16.0399 38.0944 16.0296 36.3425C10.1884 37.611 8.95601 33.527 8.95601 33.527C8.00074 31.1008 6.62392 30.4549 6.62392 30.4549C4.71725 29.1528 6.7683 29.1786 6.7683 29.1786C8.87608 29.3269 9.98475 31.3431 9.98475 31.3431C11.8579 34.5518 14.9003 33.6249 16.0967 33.0873C16.2875 31.7311 16.8302 30.8055 17.4297 30.2808C12.7668 29.7497 7.86409 27.9488 7.86409 19.9018C7.86409 17.6084 8.68271 15.7353 10.026 14.2669C9.80944 13.7358 9.08879 11.6009 10.2323 8.70931C10.2323 8.70931 11.9945 8.14465 16.0064 10.8609C17.681 10.3955 19.4781 10.1635 21.2636 10.1545C23.0478 10.1635 24.8436 10.3955 26.5208 10.8609C30.5301 8.14465 32.2898 8.70931 32.2898 8.70931C33.4359 11.6009 32.7152 13.7358 32.4999 14.2669C33.8458 15.7353 34.658 17.6084 34.658 19.9018C34.658 27.9694 29.7476 29.7446 25.0705 30.2641C25.8234 30.9125 26.495 32.1939 26.495 34.1535C26.495 36.96 26.4692 39.225 26.4692 39.9135C26.4692 40.4755 26.8483 41.1291 27.9131 40.9241C36.2514 38.1408 42.2627 30.2757 42.2627 21.0002C42.2627 9.40163 32.8596 -0.000262403 21.261 -0.000262403" fill="black"/>
</g>
<defs>
<clipPath id="clip0">
<rect width="41.9995" height="41.9995" fill="white" transform="translate(0.263245)"/>
</clipPath>
</defs>
</svg>
