<svg width="43" height="42" viewBox="0 0 43 42" fill="none" xmlns="http://www.w3.org/2000/svg">
<g clip-path="url(#clip0)">
<path fill-rule="evenodd" clip-rule="evenodd" d="M21.2635 41.9995C32.8613 41.9995 42.2632 32.5976 42.2632 20.9998C42.2632 9.40192 32.8613 0 21.2635 0C9.66561 0 0.263695 9.40192 0.263695 20.9998C0.263695 32.5976 9.66561 41.9995 21.2635 41.9995ZM26.9207 9.60404C25.4443 9.53669 25.0016 9.52241 21.2634 9.52241L21.2635 9.52235C17.5254 9.52235 17.0826 9.53663 15.6063 9.60398C14.2414 9.66622 13.5001 9.89429 13.0068 10.086C12.3987 10.3104 11.8487 10.6683 11.3971 11.1333C10.9321 11.5848 10.5742 12.1349 10.3497 12.743C10.158 13.2364 9.93 13.9776 9.8677 15.3426C9.80035 16.819 9.78606 17.2616 9.78606 20.9998C9.78606 24.738 9.80035 25.1809 9.8677 26.657C9.92994 28.022 10.158 28.7633 10.3497 29.2565C10.5742 29.8647 10.932 30.4147 11.397 30.8663C11.8486 31.3313 12.3986 31.6891 13.0067 31.9136C13.5 32.1052 14.2413 32.3333 15.6062 32.3956C17.0824 32.4629 17.525 32.4772 21.2634 32.4772C25.0019 32.4772 25.4447 32.4629 26.9207 32.3956C28.2857 32.3333 29.027 32.1052 29.5202 31.9136C30.124 31.6806 30.6723 31.3239 31.13 30.8663C31.5875 30.4087 31.9443 29.8604 32.1772 29.2565C32.3688 28.7632 32.5969 28.022 32.6592 26.657C32.7265 25.1806 32.7409 24.738 32.7409 20.9998C32.7409 17.2616 32.7265 16.8188 32.6592 15.3426C32.597 13.9776 32.3689 13.2363 32.1772 12.743C31.9528 12.135 31.5949 11.5849 31.13 11.1333C30.6784 10.6684 30.1283 10.3105 29.5202 10.0861C29.0269 9.89435 28.2857 9.66634 26.9207 9.60404ZM15.4915 7.08413C16.9845 7.01599 17.4614 6.99988 21.2634 6.99988C25.0656 6.99988 25.5424 7.01599 27.0355 7.0844C28.5257 7.15214 29.5433 7.38877 30.4338 7.7346C31.3681 8.0862 32.2144 8.63738 32.9137 9.34969C33.6258 10.049 34.1769 10.8952 34.5284 11.8293C34.8744 12.7198 35.1111 13.7374 35.1792 15.2276C35.2473 16.7206 35.2634 17.1976 35.2634 20.9996C35.2634 24.8017 35.2473 25.2785 35.1792 26.7717C35.1111 28.2617 34.8744 29.2794 34.5284 30.17C34.1687 31.1 33.6187 31.9445 32.9137 32.6496C32.2085 33.3547 31.364 33.9047 30.434 34.2644C29.5436 34.6105 28.5259 34.8471 27.0358 34.9151C25.5427 34.9832 25.0658 34.9993 21.2637 34.9993C17.4616 34.9993 16.9849 34.9832 15.4916 34.9151C14.0015 34.8471 12.9839 34.6105 12.0934 34.2644C11.1592 33.9128 10.313 33.3617 9.61373 32.6496C8.90157 31.9503 8.3505 31.1042 7.99898 30.17C7.65287 29.2795 7.41625 28.2619 7.34823 26.7717C7.27982 25.2786 7.2637 24.8018 7.2637 20.9996C7.2637 17.1975 7.27982 16.7206 7.34823 15.2276C7.41597 13.7374 7.6526 12.7198 7.99842 11.8292C8.35008 10.8951 8.9013 10.0489 9.61362 9.34963C10.3129 8.63746 11.1591 8.0864 12.0932 7.73487C12.9837 7.38877 14.0014 7.15214 15.4915 7.08413ZM21.264 13.8106C19.842 13.8106 18.4521 14.2322 17.2699 15.0222C16.0876 15.8121 15.1662 16.9349 14.6221 18.2485C14.078 19.5622 13.9356 21.0076 14.213 22.4022C14.4904 23.7967 15.1751 25.0777 16.1805 26.0831C17.1859 27.0885 18.4669 27.7732 19.8614 28.0507C21.2559 28.328 22.7014 28.1856 24.015 27.6415C25.3287 27.0974 26.4514 26.176 27.2414 24.9937C28.0314 23.8114 28.453 22.4215 28.453 20.9997C28.453 19.0931 27.6955 17.2644 26.3474 15.9162C24.9992 14.568 23.1706 13.8106 21.264 13.8106ZM21.264 25.6662C20.341 25.6662 19.4387 25.3925 18.6713 24.8797C17.9039 24.367 17.3058 23.6382 16.9526 22.7855C16.5994 21.9328 16.507 20.9944 16.6871 20.0892C16.8672 19.184 17.3116 18.3525 17.9643 17.6999C18.6169 17.0473 19.4484 16.6028 20.3536 16.4228C21.2588 16.2427 22.1972 16.3351 23.0499 16.6883C23.9026 17.0415 24.6314 17.6397 25.1441 18.4071C25.6568 19.1745 25.9305 20.0768 25.9305 20.9997C25.9305 22.2373 25.4389 23.4242 24.5637 24.2994C23.6886 25.1745 22.5015 25.6662 21.264 25.6662ZM30.4161 13.5265C30.4161 14.4543 29.6639 15.2064 28.7362 15.2064C27.8084 15.2064 27.0563 14.4543 27.0563 13.5265C27.0563 12.5987 27.8084 11.8465 28.7362 11.8465C29.6639 11.8465 30.4161 12.5987 30.4161 13.5265Z" fill="black"/>
</g>
<defs>
<clipPath id="clip0">
<rect width="41.9995" height="41.9995" fill="white" transform="translate(0.263695)"/>
</clipPath>
</defs>
</svg>
