<svg width="43" height="42" viewBox="0 0 43 42" fill="none" xmlns="http://www.w3.org/2000/svg">
<g clip-path="url(#clip0)">
<path fill-rule="evenodd" clip-rule="evenodd" d="M42.2623 20.9998C42.2623 32.5976 32.8604 41.9995 21.2626 41.9995C9.66471 41.9995 0.262787 32.5976 0.262787 20.9998C0.262787 9.40192 9.66471 0 21.2626 0C32.8604 0 42.2623 9.40192 42.2623 20.9998ZM31.8241 17.671C31.8241 24.3595 26.7317 32.0769 17.4183 32.0769C14.5623 32.0769 11.8953 31.2369 9.67987 29.7879C10.0789 29.8404 10.4779 29.8614 10.8874 29.8614C13.2603 29.8614 15.4443 29.0529 17.1768 27.6984C14.9613 27.6564 13.0923 26.1969 12.4518 24.181C12.7668 24.244 13.0818 24.2755 13.4073 24.2755C13.8693 24.2755 14.3208 24.2125 14.7408 24.097C12.4203 23.6245 10.6774 21.5875 10.6774 19.1305V19.0675C11.3599 19.4455 12.1368 19.6765 12.9663 19.6975C11.6013 18.7945 10.7089 17.2405 10.7089 15.4871C10.7089 14.5631 10.9609 13.6916 11.3914 12.9461C13.8903 16.0121 17.6178 18.028 21.8282 18.238C21.7337 17.8705 21.6917 17.482 21.6917 17.083C21.6917 14.2901 23.9597 12.0221 26.7527 12.0221C28.2122 12.0221 29.5247 12.6311 30.4486 13.6181C31.6036 13.3871 32.6851 12.9671 33.6616 12.3896C33.2836 13.5761 32.4856 14.5631 31.4356 15.1931C32.4646 15.0671 33.4411 14.7941 34.3441 14.3951C33.6616 15.4136 32.8006 16.306 31.8136 17.02C31.8241 17.23 31.8241 17.4505 31.8241 17.671Z" fill="black"/>
</g>
<defs>
<clipPath id="clip0">
<rect width="41.9995" height="41.9995" fill="white" transform="translate(0.262787)"/>
</clipPath>
</defs>
</svg>
