<svg width="43" height="43" viewBox="0 0 43 43" fill="none" xmlns="http://www.w3.org/2000/svg">
<path fill-rule="evenodd" clip-rule="evenodd" d="M21.1318 42.2637C32.8026 42.2637 42.2637 32.8026 42.2637 21.1318C42.2637 9.46105 32.8026 0 21.1318 0C9.46105 0 0 9.46105 0 21.1318C0 32.8026 9.46105 42.2637 21.1318 42.2637ZM34.423 14.0675C34.1001 12.8682 33.1545 11.9226 31.9551 11.5997C29.7641 11 20.9998 11 20.9998 11C20.9998 11 12.2355 11 10.0444 11.5766C8.86818 11.8995 7.89949 12.8682 7.5766 14.0675C7 16.2586 7 20.8022 7 20.8022C7 20.8022 7 25.3688 7.5766 27.5368C7.89949 28.7361 8.84511 29.6818 10.0444 30.0047C12.2586 30.6043 20.9998 30.6043 20.9998 30.6043C20.9998 30.6043 29.7641 30.6043 31.9551 30.0277C33.1545 29.7048 34.1001 28.7592 34.423 27.5599C34.9996 25.3688 34.9996 20.8252 34.9996 20.8252C34.9996 20.8252 35.0226 16.2586 34.423 14.0675ZM25.4975 20.8021L18.2093 16.6045V24.9997L25.4975 20.8021Z" fill="black"/>
</svg>
